<svg xmlns="http://www.w3.org/2000/svg" xmlns:xlink="http://www.w3.org/1999/xlink" xmlns:inkscape="http://www.inkscape.org/namespaces/inkscape" version="1.1" width="286.018" height="285.468" viewBox="0 0 286.018 285.468">
<defs>
<clipPath id="clip_1">
<path transform="matrix(1,0,0,-1,0,285.468)" d="M0 285.468H286.018V0H0Z"/>
</clipPath>
</defs>
<g inkscape:groupmode="layer" inkscape:label="&#x56FE;&#x5C42; 1">
<g clip-path="url(#clip_1)">
<path transform="matrix(1,0,0,-1,66.8573,177.7226)" d="M0 0C-7.158-5.476-16.465-17.036-10.205-26.263-4.188-35.132 9.571-29.198 15.315-22.83 23.882-13.332 32.695 4.344 37.742 16.219 37.841 16.453 38.423 17.715 38.315 17.824 24.762 13.642 11.359 8.69 0 0" fill="#ffffff"/>
<path transform="matrix(1,0,0,-1,134.313,244.51099)" d="M0 0C-3.005 0-4.507-1.871-4.507-5.609-4.507-7.444-4.139-8.848-3.403-9.822-2.668-10.796-1.6-11.283-.203-11.283 2.822-11.283 4.335-9.392 4.335-5.609 4.335-1.871 2.89 0 0 0" fill="#ffffff"/>
<path transform="matrix(1,0,0,-1,161.7595,244.51099)" d="M0 0C-3.005 0-4.507-1.871-4.507-5.609-4.507-7.444-4.139-8.848-3.403-9.822-2.669-10.796-1.6-11.283-.203-11.283 2.822-11.283 4.335-9.392 4.335-5.609 4.335-1.871 2.89 0 0 0" fill="#ffffff"/>
<path transform="matrix(1,0,0,-1,237.5913,105.557788)" d="M0 0C-14.531-17.311-35.44-26.813-56.325-34.235-62.261-48.93-67.986-63.989-70.019-79.839-70.983-87.356-72.537-102.615-60.536-100.745-50.978-99.255-40.625-86.946-34.874-79.661-32.712-76.922-30.608-73.505-28.401-70.953-24.382-66.304-17.043-70.041-18.526-76.019-19.025-78.031-23.008-83.104-24.437-84.988-33.569-97.019-49.911-114.656-65.908-115.665-75.964-116.3-84.263-112.967-88.807-103.696-96.397-88.212-91.308-66.597-86.313-50.918-85.384-48.002-83.923-44.738-83.183-41.873-83.148-41.738-83.021-41.422-83.194-41.412L-105.437-46.976C-110.023-58.326-115.203-69.49-121.684-79.88-134.275-100.066-153.949-120.608-180.247-115.322-193.262-112.705-200.529-102.756-198.986-89.457-196.8-70.623-172.685-57.03-157.02-50.255-147.029-45.934-136.566-42.828-126.108-39.833-119.073-24.24-112.289-8.49-103.411 6.162-103.363 6.368-103.422 6.445-103.631 6.382-104.666 6.071-105.792 5.482-106.901 5.142-118.407 1.612-133.482 2.081-136.854 16.153-137.6 19.268-137.462 25.711-139.479 27.957-141.583 30.3-146.126 28.141-148.248 26.648-154.486 22.26-158.95 14.726-162.158 7.941-163.926 4.204-165.009-1.243-170.228-1.287-173.084-1.311-176.555 1.069-176.307 4.204-176.102 6.792-174.001 11.677-172.83 14.104-168.071 23.964-160.314 34.038-150.609 39.381-140.19 45.116-123.144 47.155-117.511 33.992-115.946 30.333-115.887 26.202-114.673 22.552-113.643 19.456-110.799 18.777-107.845 19.013-101.399 19.528-93.496 26.094-88.676 30.206-83.855 34.321-76.553 42.805-70.496 44.042-65.189 45.127-61.748 42.346-62.391 36.838-62.813 33.217-67.264 30.962-69.81 28.776-76.025 23.443-79.753 16.261-83.246 8.994-89.81-4.663-94.878-18.991-100.251-33.146L-77.559-27.356C-72.611-17.399-67.898-7.519-61.776 1.803-52.052 16.61-34.451 38.232-16.713 42.867-5.379 45.828 7.345 43.909 10 30.736 12.244 19.611 6.993 8.332 0 0M-55.203-151.58C-56.245-152.445-57.702-152.877-59.577-152.877-61.525-152.877-62.955-152.571-63.867-151.96-64.778-151.349-65.379-150.364-65.669-149.007L-62.592-148.525C-62.447-149.24-62.14-149.753-61.668-150.063-61.197-150.375-60.52-150.53-59.64-150.53-58.842-150.53-58.197-150.36-57.706-150.017-57.213-149.676-56.967-149.122-56.967-148.354-56.967-147.889-57.076-147.502-57.294-147.197-57.511-146.891-57.835-146.628-58.265-146.404-58.695-146.183-59.531-145.904-60.775-145.574-61.914-145.273-62.76-144.934-63.315-144.556-63.87-144.177-64.297-143.701-64.597-143.126-64.898-142.55-65.048-141.844-65.048-141.005-65.048-139.524-64.584-138.371-63.657-137.548-62.729-136.724-61.376-136.312-59.594-136.312-57.946-136.312-56.68-136.616-55.794-137.22-54.908-137.826-54.351-138.756-54.123-140.009L-57.231-140.337C-57.346-139.726-57.596-139.296-57.985-139.046-58.373-138.798-58.9-138.674-59.562-138.674-61.023-138.674-61.753-139.316-61.753-140.6-61.753-141.014-61.663-141.357-61.481-141.627-61.301-141.895-61.036-142.125-60.689-142.318-60.342-142.51-59.552-142.781-58.319-143.132-56.962-143.518-55.999-143.903-55.429-144.29-54.859-144.68-54.419-145.169-54.107-145.76-53.798-146.351-53.642-147.09-53.642-147.982-53.642-149.514-54.163-150.714-55.203-151.58M-69.919-150.67C-71.365-152.142-73.392-152.877-76.003-152.877-78.531-152.877-80.509-152.131-81.939-150.639-83.369-149.147-84.084-147.121-84.084-144.562-84.084-141.964-83.367-139.938-81.931-138.486-80.497-137.036-78.489-136.312-75.91-136.312-73.247-136.312-71.222-137.019-69.834-138.433-68.446-139.847-67.752-141.891-67.752-144.562-67.752-147.163-68.474-149.2-69.919-150.67M-87.894-152.567H-91.467998V-129.973H-87.894ZM-97.366-150.67C-98.811-152.142-100.839-152.877-103.45-152.877-105.978-152.877-107.956-152.131-109.386-150.639-110.816-149.147-111.531-147.121-111.531-144.562-111.531-141.964-110.813-139.938-109.378-138.486-107.943-137.036-105.936-136.312-103.357-136.312-100.694-136.312-98.668-137.019-97.281-138.433-95.893-139.847-95.199-141.891-95.199-144.562-95.199-147.163-95.92-149.2-97.366-150.67M-115.601-152.567H-119.237V-142.823H-129.773V-152.567H-133.549V-130.67H-129.773V-139.684H-119.237V-130.67H-115.601ZM-94.333 104.401C-172.609 104.401-236.065 40.945-236.065-37.331-236.065-115.607-172.609-179.062-94.333-179.062-16.056-179.062 47.4-115.607 47.4-37.331 47.4 40.945-16.056 104.401-94.333 104.401" fill="#ffffff"/>
<path transform="matrix(1,0,0,-1,222.569,76.25609)" d="M0 0C-7.248-3.307-15.224-14.418-19.457-21.126-24.7-29.434-29.408-38.27-33.674-47.115-25.02-43.95-16.631-39.848-9.19-34.4-1.198-28.548 7.996-19.483 10.742-9.69 13.314-.515 9.044 4.126 0 0" fill="#ffffff"/>
</g>
</g>
</svg>
