<svg xmlns="http://www.w3.org/2000/svg" width="1120" height="560" viewBox="0 0 1120 560"><rect width="1120" height="560" fill="#f7f7f5"/><text x="56" y="58" font-family="Segoe UI,sans-serif" font-size="28" font-weight="700" fill="#20201e">Composer hierarchy</text><text x="56" y="88" font-family="Segoe UI,sans-serif" font-size="15" fill="#6d6d68">PR 07 · editor first, controls second</text><g transform="translate(56 126)"><rect width="454" height="360" rx="16" fill="#fff" stroke="#deded8"/><text x="26" y="34" font-family="Segoe UI,sans-serif" font-size="14" font-weight="700" fill="#8a8a83">BEFORE</text><rect x="28" y="74" width="398" height="174" rx="16" fill="#fff" stroke="#aeb4bf"/><rect x="28" y="74" width="398" height="112" rx="16" fill="#fff"/><text x="52" y="120" font-family="Segoe UI,sans-serif" font-size="16" fill="#4b4b46">Write a message…</text><rect x="28" y="186" width="398" height="62" fill="#f0f1f3"/><rect x="50" y="205" width="82" height="28" rx="8" fill="#d7dce5"/><rect x="144" y="205" width="82" height="28" rx="8" fill="#d7dce5"/><circle cx="382" cy="219" r="17" fill="#3978c8"/><text x="28" y="286" font-family="Segoe UI,sans-serif" font-size="14" fill="#8a8a83">Heavy elevation makes toolbar feel separate.</text></g><g transform="translate(610 126)"><rect width="454" height="360" rx="16" fill="#fff" stroke="#deded8"/><text x="26" y="34" font-family="Segoe UI,sans-serif" font-size="14" font-weight="700" fill="#4b4b46">AFTER</text><rect x="28" y="74" width="398" height="174" rx="12" fill="#fff" stroke="#c9cdd4"/><rect x="28" y="74" width="398" height="112" rx="12" fill="#fff"/><text x="52" y="120" font-family="Segoe UI,sans-serif" font-size="16" fill="#4b4b46">Write a message…</text><rect x="28" y="186" width="398" height="62" fill="#fafaf8"/><rect x="50" y="205" width="82" height="28" rx="8" fill="#edf0f4"/><rect x="144" y="205" width="82" height="28" rx="8" fill="#edf0f4"/><circle cx="382" cy="219" r="17" fill="#3978c8"/><text x="28" y="286" font-family="Segoe UI,sans-serif" font-size="14" fill="#6d6d68">The editor owns the surface; controls recede.</text></g></svg>