<svg xmlns="http://www.w3.org/2000/svg" width="1120" height="520" viewBox="0 0 1120 520"><rect width="1120" height="520" fill="#f7f7f5"/><text x="56" y="58" font-family="Segoe UI,sans-serif" font-size="28" font-weight="700" fill="#20201e">Session header safe inset</text><text x="56" y="88" font-family="Segoe UI,sans-serif" font-size="15" fill="#6d6d68">PR 13 · align content with the actual desktop chrome</text><g transform="translate(56 126)"><rect width="454" height="320" rx="16" fill="#fff" stroke="#deded8"/><text x="26" y="34" font-family="Segoe UI,sans-serif" font-size="14" font-weight="700" fill="#8a8a83">BEFORE · 48px inset</text><rect x="28" y="64" width="398" height="196" rx="10" fill="#f1f1ee"/><rect x="28" y="64" width="398" height="58" fill="#dedfe4"/><text x="48" y="99" font-family="Segoe UI,sans-serif" font-size="14" fill="#4b4b46">session top bar · 58px</text><rect x="28" y="112" width="398" height="46" fill="#e5ebf5"/><text x="48" y="141" font-family="Segoe UI,sans-serif" font-size="14" fill="#3978c8">first message enters header zone</text><text x="28" y="292" font-family="Segoe UI,sans-serif" font-size="14" fill="#8a8a83">Desktop content can sit under chrome.</text></g><g transform="translate(610 126)"><rect width="454" height="320" rx="16" fill="#fff" stroke="#deded8"/><text x="26" y="34" font-family="Segoe UI,sans-serif" font-size="14" font-weight="700" fill="#4b4b46">AFTER · 58px inset</text><rect x="28" y="64" width="398" height="196" rx="10" fill="#f1f1ee"/><rect x="28" y="64" width="398" height="58" fill="#dedfe4"/><text x="48" y="99" font-family="Segoe UI,sans-serif" font-size="14" fill="#4b4b46">session top bar · 58px</text><rect x="28" y="122" width="398" height="46" fill="#e5ebf5"/><text x="48" y="151" font-family="Segoe UI,sans-serif" font-size="14" fill="#3978c8">first message begins below chrome</text><text x="28" y="292" font-family="Segoe UI,sans-serif" font-size="14" fill="#6d6d68">Anchor and first-paint positions agree.</text></g></svg>
